<svg width="14" height="22" viewBox="0 0 14 22" fill="none" xmlns="http://www.w3.org/2000/svg">
<path d="M7.84405 15.764V15.12C7.84405 13.692 8.90805 12.852 10.28 11.872C11.904 10.724 13.836 9.296 13.836 6.3C13.836 2.576 11.316 0.168 7.14405 0.168C3.08405 0.168 0.144047 2.996 0.144047 7H3.70005C3.70005 4.844 5.07205 3.36 7.06005 3.36C9.02005 3.36 10.196 4.62 10.196 6.524C10.196 8.148 9.04805 9.1 7.78805 10.108C6.30405 11.256 4.73605 12.572 4.73605 15.12V15.764H7.84405ZM6.41605 21.364C7.64805 21.364 8.68405 20.328 8.68405 19.152C8.68405 17.92 7.64805 16.912 6.41605 16.912C5.15605 16.912 4.14805 17.92 4.14805 19.152C4.14805 20.356 5.15605 21.364 6.41605 21.364Z" fill="white"/>
</svg>
